<?xml version="1.0" encoding="utf-8"?>
<!-- Generator: Adobe Illustrator 18.0.0, SVG Export Plug-In . SVG Version: 6.00 Build 0)  -->
<!DOCTYPE svg PUBLIC "-//W3C//DTD SVG 1.1//EN" "http://www.w3.org/Graphics/SVG/1.1/DTD/svg11.dtd">
<svg version="1.1" id="Layer_1" xmlns="http://www.w3.org/2000/svg" xmlns:xlink="http://www.w3.org/1999/xlink" x="0px" y="0px"
	 viewBox="0 0 1920 1080" enable-background="new 0 0 1920 1080" xml:space="preserve">
<path fill="#FFFFFF" d="M1467.3,252.5h-383.9V38.1H807.9v371.6H695.3c-18.4-32.5-38.3-54-46.6-60.8l-48.1,23.3l1.8,3.2
	c-5.3,3.5-24.7,13.8-40.6,34.2H436.3v275.5h180.1c17.9,36.7,36.7,70.3,52.7,92.8c28.2,40.6,86.2,101.4,138.9,149.4v129.7h275.5v-372
	H1455v-82.2c24-9.9,41-33.5,41-61.2V281.1C1496,265.6,1483.2,252.5,1467.3,252.5z M807.9,822.3c-4.3-5-7.8-9.9-9.9-13.1
	c-10.6-15.1-34.2-48.8-56.9-81.2c-10.3-14.5-20.5-29.3-30.1-42.7h96.8v137.1H807.9z"/>
<g>
	<g>
		<rect x="807.9" y="38.1" fill="#EEA33D" width="275.5" height="1018.7"/>
		<rect x="436.3" y="409.7" fill="#EEA33D" width="1018.7" height="275.5"/>
	</g>
	<path fill="#2BB673" d="M1027.2,981.2l-2.5-2.5c-9.9,6.7-55.4,52-125,19.1c-48.1-22.6-181.8-150.8-230.3-220.1
		C621,708.6,546.1,539,541.5,486c-6.7-76.6,51.2-104.1,60.8-111l-1.4-3.2l48.1-23.3c11.3,8.5,42,43.5,63.5,95.4
		c26.9,65.3,17.7,101,17.7,101l-43.1,16.5l-1.1-2.8c-42,27.2-11.9,72-1.4,87.3c10.5,15.1,34.2,48.8,56.9,81.2
		c22.7,32.5,46.3,66,56.9,81.2c10.5,15.1,42.4,58.6,82.3,28.2l-2.1-2.1l30.3-34.6c0,0,36.7,3.5,89,51.2
		c41.3,37.8,63.5,78.8,67.8,92.2L1027.2,981.2z"/>
	<polygon fill="#E0772A" points="817.5,679.6 1000,634.6 1455,645.6 1454.3,591.9 932.6,564.7 	"/>
	<g>
		<path fill="#2BB673" d="M817.5,679.6l179.5-72.4l432.6,1.1c36.4,0,66-29.3,66-66V281.1c0-15.9-12.8-28.6-28.6-28.6H938.5
			c-15.9,0-28.6,12.8-28.6,28.6v211.6L817.5,679.6z"/>
		<circle fill="#107E4F" cx="1055.5" cy="430.6" r="33.5"/>
		<circle fill="#107E4F" cx="1201" cy="430.6" r="33.5"/>
		<circle fill="#107E4F" cx="1343.7" cy="430.6" r="33.5"/>
	</g>
</g>
</svg>
